{
  "accessors": [
    {
      "bufferView": 2,
      "componentType": 5126,
      "count": 11865,
      "max": [
        0.949999988079071,
        0.7693729996681213,
        0.9285200238227844
      ],
      "min": [
        -0.949999988079071,
        -0.7693729996681213,
        -0.9285200238227844
      ],
      "type": "VEC3"
    },
    {
      "bufferView": 2,
      "byteOffset": 142380,
      "componentType": 5126,
      "count": 11865,
      "max": [
        1.0,
        1.0,
        0.9999575614929199
      ],
      "min": [
        -0.9999759197235107,
        -1.0,
        -1.0
      ],
      "type": "VEC3"
    },
    {
      "bufferView": 3,
      "componentType": 5126,
      "count": 11865,
      "max": [
        1.0,
        0.9991151094436646,
        0.9999868273735046,
        1.0
      ],
      "min": [
        -0.9999995827674866,
        -1.0,
        -0.9999684691429138,
        -1.0
      ],
      "type": "VEC4"
    },
    {
      "bufferView": 1,
      "componentType": 5126,
      "count": 11865,
      "max": [
        0.9995970129966736,
        0.99959397315979
      ],
      "min": [
        0.0004030000127386302,
        0.00040602684020996094
      ],
      "type": "VEC2"
    },
    {
      "bufferView": 1,
      "byteOffset": 94920,
      "componentType": 5126,
      "count": 11865,
      "max": [
        0.9995970129966736,
        0.99959397315979
      ],
      "min": [
        0.0004030000127386302,
        0.00040602684020996094
      ],
      "type": "VEC2"
    },
    {
      "bufferView": 1,
      "byteOffset": 189840,
      "componentType": 5126,
      "count": 11865,
      "max": [
        0.9995970129966736,
        0.99959397315979
      ],
      "min": [
        0.0004030000127386302,
        0.00040602684020996094
      ],
      "type": "VEC2"
    },
    {
      "bufferView": 1,
      "byteOffset": 284760,
      "componentType": 5126,
      "count": 11865,
      "max": [
        0.9995970129966736,
        0.99959397315979
      ],
      "min": [
        0.0004030000127386302,
        0.00040602684020996094
      ],
      "type": "VEC2"
    },
    {
      "bufferView": 0,
      "componentType": 5125,
      "count": 51630,
      "type": "SCALAR"
    }
  ],
  "asset": {
    "extras": {
      "author": "YØD (https://sketchfab.com/YOD3DD)",
      "license": "CC-BY-4.0 (http://creativecommons.org/licenses/by/4.0/)",
      "source": "https://sketchfab.com/3d-models/a-contortionist-dancer-93aa0a1a22d446f0ab1488bdaa63324a",
      "title": "A contortionist dancer"
    },
    "generator": "Sketchfab-16.82.0",
    "version": "2.0"
  },
  "bufferViews": [
    {
      "buffer": 0,
      "byteLength": 206520,
      "name": "floatBufferViews",
      "target": 34963
    },
    {
      "buffer": 0,
      "byteLength": 379680,
      "byteOffset": 206520,
      "byteStride": 8,
      "name": "floatBufferViews",
      "target": 34962
    },
    {
      "buffer": 0,
      "byteLength": 284760,
      "byteOffset": 586200,
      "byteStride": 12,
      "name": "floatBufferViews",
      "target": 34962
    },
    {
      "buffer": 0,
      "byteLength": 189840,
      "byteOffset": 870960,
      "byteStride": 16,
      "name": "floatBufferViews",
      "target": 34962
    }
  ],
  "buffers": [
    {
      "byteLength": 1060800,
      "uri": "scene.bin"
    }
  ],
  "extensionsUsed": [
    "KHR_materials_specular"
  ],
  "images": [
    {
      "uri": "textures/Material.001_baseColor.png"
    },
    {
      "uri": "textures/Material.001_metallicRoughness.png"
    },
    {
      "uri": "textures/Material.001_normal.png"
    }
  ],
  "materials": [
    {
      "doubleSided": true,
      "extensions": {
        "KHR_materials_specular": {
          "specularColorFactor": [
            1.0,
            1.0,
            1.0
          ],
          "specularFactor": 0.19352439931245502
        }
      },
      "name": "Material.001",
      "normalTexture": {
        "index": 2,
        "texCoord": 2
      },
      "pbrMetallicRoughness": {
        "baseColorTexture": {
          "index": 0
        },
        "metallicFactor": 0.059428752544769654,
        "metallicRoughnessTexture": {
          "index": 1,
          "texCoord": 1
        }
      }
    }
  ],
  "meshes": [
    {
      "name": "Object_0",
      "primitives": [
        {
          "attributes": {
            "NORMAL": 1,
            "POSITION": 0,
            "TANGENT": 2,
            "TEXCOORD_0": 3,
            "TEXCOORD_1": 4,
            "TEXCOORD_2": 5,
            "TEXCOORD_3": 6
          },
          "indices": 7,
          "material": 0,
          "mode": 4
        }
      ]
    }
  ],
  "nodes": [
    {
      "children": [
        1
      ],
      "matrix": [
        1.0,
        0.0,
        0.0,
        0.0,
        0.0,
        2.220446049250313e-16,
        -1.0,
        0.0,
        0.0,
        1.0,
        2.220446049250313e-16,
        0.0,
        0.0,
        0.0,
        0.0,
        1.0
      ],
      "name": "Sketchfab_model"
    },
    {
      "children": [
        2
      ],
      "name": "root"
    },
    {
      "children": [
        3
      ],
      "matrix": [
        1.0,
        0.0,
        0.0,
        0.0,
        0.0,
        2.220446049250313e-16,
        1.0,
        0.0,
        0.0,
        -1.0,
        2.220446049250313e-16,
        0.0,
        0.0,
        0.0,
        0.0,
        1.0
      ],
      "name": "GLTF_SceneRootNode"
    },
    {
      "children": [
        4
      ],
      "matrix": [
        1.0,
        0.0,
        0.0,
        0.0,
        0.0,
        0.0,
        1.0,
        0.0,
        0.0,
        -1.0,
        0.0,
        0.0,
        0.0,
        0.0,
        0.0,
        1.0
      ],
      "name": "material_0"
    },
    {
      "mesh": 0,
      "name": "Object_4"
    }
  ],
  "samplers": [
    {
      "magFilter": 9729,
      "minFilter": 9987,
      "wrapS": 10497,
      "wrapT": 10497
    }
  ],
  "scene": 0,
  "scenes": [
    {
      "name": "Sketchfab_Scene",
      "nodes": [
        0
      ]
    }
  ],
  "textures": [
    {
      "sampler": 0,
      "source": 0
    },
    {
      "sampler": 0,
      "source": 1
    },
    {
      "sampler": 0,
      "source": 2
    }
  ]
}
